/* XPM */
static char *_aiUCHncQQ5xGZcdGPaxezQK50GfOzR[] = {
/* columns rows colors chars-per-pixel */
"50 50 2 1 ",
"  c white",
". c #000000",
/* pixels */
"..................................................",
"..................................................",
"..                                              ..",
"..                                              ..",
"..                                              ..",
"..                                              ..",
"..                                              ..",
"..                                              ..",
"..                                              ..",
"..                                              ..",
"..                                              ..",
"..                                              ..",
"..                                              ..",
"..                                              ..",
"..                                              ..",
"..                                              ..",
"..                                              ..",
"..                                              ..",
"..                                              ..",
"..                                              ..",
"..                                              ..",
"..                                              ..",
"..                                              ..",
"..                                              ..",
"..                                              ..",
"..                                              ..",
"..                                              ..",
"..                                              ..",
"..                                              ..",
"..                                              ..",
"..                                              ..",
"..                                              ..",
"..                                              ..",
"..                                              ..",
"..                                              ..",
"..                                              ..",
"..                                              ..",
"..                                              ..",
"..                                              ..",
"..                                              ..",
"..                                              ..",
"..                                              ..",
"..                                              ..",
"..                                              ..",
"..                                              ..",
"..                                              ..",
"..                                              ..",
"..                                              ..",
"..................................................",
".................................................."
};