/* XPM */
static char *_aiUCHncQQZcdGPaxezQK50GfOzR[] = {
/* columns rows colors chars-per-pixel */
"10 10 2 1 ",
"  c #7A7A7A",
". c #000000",
/* pixels */
"..........",
".        .",
".        .",
".        .",
".        .",
".        .",
".        .",
".        .",
".        .",
".........."
};