/* XPM */
static char *_aiUCHncQQGZcdGPaxezQGfOzR[] = {
/* columns rows colors chars-per-pixel */
"10 10 2 1 ",
"  c #white",
". c #000000",
/* pixels */
"..........",
".        .",
".        .",
".        .",
".        .",
".        .",
".        .",
".        .",
".        .",
".........."
};