/* XPM */
static char *_d23570073a044ae8ed3afc44ff38bca7c4Tlfj1FBysTgWU[] = {
/* columns rows colors chars-per-pixel */
"50 50 256 2 ",
"   c #2F1830",
".  c #362334",
"X  c #251119",
"o  c #502F33",
"O  c #6C2C35",
"+  c #6F1838",
"@  c #2B543C",
"#  c #7B542C",
"$  c #744E34",
"%  c #545837",
"&  c #2F1F4A",
"*  c #182A58",
"=  c #382749",
"-  c #3E3549",
";  c #372A57",
":  c #3C375A",
">  c #2B2755",
",  c #0F2C73",
"<  c #3A3666",
"1  c #383877",
"2  c #2F316B",
"3  c #0E1853",
"4  c #422B48",
"5  c #493749",
"6  c #543847",
"7  c #463857",
"8  c #513351",
"9  c #64384F",
"0  c #453968",
"q  c #533C66",
"w  c #4A3870",
"e  c #39475B",
"r  c #374D72",
"t  c #1F5667",
"y  c #5A4659",
"u  c #4E4B51",
"i  c #64464A",
"p  c #67495A",
"a  c #725255",
"s  c #6E6656",
"d  c #4A4469",
"f  c #564867",
"g  c #495667",
"h  c #464579",
"j  c #564972",
"k  c #57557A",
"l  c #515470",
"z  c #654A66",
"x  c #665669",
"c  c #765868",
"v  c #675876",
"b  c #6F5278",
"n  c #546572",
"m  c #6A6578",
"M  c #786777",
"N  c #736D70",
"B  c #4A6455",
"V  c #B22229",
"C  c #9B262C",
"Z  c #E71909",
"A  c #DF1E25",
"S  c #AC7418",
"D  c #B0751B",
"F  c #8A5930",
"G  c #93682E",
"H  c #A97527",
"J  c #A9732F",
"K  c #93601D",
"L  c #DF641F",
"P  c #A33455",
"I  c #8D5051",
"U  c #AA4F4B",
"Y  c #906D4E",
"T  c #8D5870",
"R  c #886668",
"E  c #986A78",
"W  c #87777D",
"Q  c #896F73",
"!  c #AA6F70",
"~  c #B47A54",
"^  c #CA764B",
"/  c #DA6559",
"(  c #27D029",
")  c #4CE815",
"_  c #5EA25C",
"`  c #61D74E",
"'  c #35B436",
"]  c #BC8314",
"[  c #B38630",
"{  c #D8980B",
"}  c #C88A16",
"|  c #CD9417",
" . c #D79A18",
".. c #CC9007",
"X. c #E49A06",
"o. c #F29F10",
"O. c #D9A60D",
"+. c #EAA605",
"@. c #F2AA07",
"#. c #F6B607",
"$. c #E7A918",
"%. c #F2B711",
"&. c #CB912D",
"*. c #DAAB32",
"=. c #E9AA29",
"-. c #FAC711",
";. c #FAD321",
":. c #8D8D70",
">. c #AB8872",
",. c #A09F61",
"<. c #CE9046",
"1. c #CA856F",
"2. c #E69954",
"3. c #93DE64",
"4. c #13378C",
"5. c #323587",
"6. c #193DAB",
"7. c #503E8B",
"8. c #124E8F",
"9. c #334C91",
"0. c #136590",
"q. c #2E7294",
"w. c #1350B0",
"e. c #3155AC",
"r. c #306AB0",
"t. c #186DBA",
"y. c #474884",
"u. c #554B86",
"i. c #585686",
"p. c #55599C",
"a. c #495593",
"s. c #675A85",
"d. c #675995",
"f. c #6B5484",
"g. c #536A91",
"h. c #696687",
"j. c #776987",
"k. c #7B7689",
"l. c #6A669A",
"z. c #756A96",
"x. c #7A7699",
"c. c #68788F",
"v. c #505CAD",
"b. c #7159A5",
"n. c #4F70AD",
"m. c #7170AF",
"M. c #1F38D6",
"N. c #0B52CD",
"B. c #2D6FD1",
"V. c #1964D7",
"C. c #4E71CE",
"Z. c #7277CA",
"A. c #4572E3",
"S. c #877988",
"D. c #877998",
"F. c #907489",
"G. c #A77B8B",
"H. c #8D77B3",
"J. c #8E7DCD",
"K. c #A37FC4",
"L. c #279CAE",
"P. c #738795",
"I. c #5292B1",
"U. c #738EB3",
"Y. c #72ABAF",
"T. c #558FA0",
"R. c #33ADCC",
"E. c #1A93D2",
"W. c #548AD0",
"Q. c #6B8FD1",
"!. c #74AAD0",
"~. c #548EE5",
"^. c #6793E6",
"/. c #6BADEF",
"(. c #4CB1D5",
"). c #6CCAD2",
"_. c #6CC4AA",
"`. c #94868A",
"'. c #87869A",
"]. c #978A98",
"[. c #9A9597",
"{. c #8C8D90",
"}. c #A69799",
"|. c #AB8C92",
" X c #90A39B",
".X c #B3A496",
"XX c #8A87A7",
"oX c #948AA6",
"OX c #9996A6",
"+X c #9A98B5",
"@X c #878FB2",
"#X c #A399A8",
"$X c #A79AB7",
"%X c #B39AAB",
"&X c #99A5A9",
"*X c #9AA7B8",
"=X c #90A8B7",
"-X c #A6A6AA",
";X c #B7A8A9",
":X c #BAB6AB",
">X c #A9A6B8",
",X c #B6AAB6",
"<X c #A8B6B8",
"1X c #B8B4B7",
"2X c #ABBAAE",
"3X c #CF9090",
"4X c #E19895",
"5X c #D0A996",
"6X c #C6B8B6",
"7X c #CCABA8",
"8X c #E6AAAB",
"9X c #E6AFB2",
"0X c #E1A4A0",
"qX c #B7C8B8",
"wX c #D9C594",
"eX c #CFC8B3",
"rX c #F0CB9F",
"tX c #8D94CB",
"yX c #A99CC6",
"uX c #91AFD0",
"iX c #A7A9C3",
"pX c #B6A9C7",
"aX c #ACB7C6",
"sX c #B6B7C6",
"dX c #B8B8D5",
"fX c #B0AFD4",
"gX c #8893E1",
"hX c #94B2EA",
"jX c #A8BAE3",
"kX c #C5BAC9",
"lX c #C8BDD5",
"zX c #C5BDE6",
"xX c #90C9CF",
"cX c #BBC4D7",
"vX c #B2CFCE",
"bX c #94CEE8",
"nX c #B4D1E6",
"mX c #B5E0F2",
"MX c #C6C5C8",
"NX c #C8C7D7",
"BX c #CCD4D9",
"VX c #D7D8D9",
"CX c #D2D1CE",
"ZX c #E6D5D2",
"AX c #D2E4D7",
"SX c #E6E7DA",
"DX c #C6CAE6",
"FX c #CAD5E9",
"GX c #D7DAE6",
"HX c #D4D5EE",
"JX c #E3DDE5",
"KX c #DBE5E6",
"LX c #D3E5F5",
"PX c #E6E7E8",
"IX c #E9EAF4",
"UX c #F5F5F4",
/* pixels */
"*. .&.Y.uXP.[.wXrXJ s N B o o . o o N k.`.`.M ,XpX+XD.5.6.u.r R.Y.I.9.e.a.7.C.v.u.8 8 |.W 4 b b 6 3X",
"j b c S.vX<X>.-.#.#.*.%.+.X.] D ....G H ] } Y 1XCXJX%X/ P ; 4 x.m.a.d l.z.a.u.u.b x k.].CX>X= = & X ",
"%X7XUXVXvXPXwXo.X.o.&.@.@.X.J H ....[ } O.{ # >XDXFXG.2./ I k A.Q.b.l.m.m.i.m.b.f.|.CXCXVXD.d f q   ",
";X|.kX3XR ].M o 9 9 o o q 7 d c R # a :.>.Y p 7 j j.Q ! E c j p.l.b j.oXoXw 8 q b Q y 7 ].b 5 7 8   ",
";Xa F.;X|.kX9 ^ <.2.1.h t.8.8.I.I.P.xX!.xXY.4.= b.K.H.z >XLX!.d NXFX>XfXFXyXG.0X4X/ T Z.K.lXqXLXPXnX",
"PX].GXIXIXIXM U ^ &.1.B q.q.q.T.P.j.&X<XvXuX8.d.b.K.lXb lXLXjXg.DXDX].iXHXzX3X8X3X3X! u.pXyXI.).bXLX",
"$XOX&XvXaXm :XSXSX6X5 x m e `.[.].m 5 j m ].k q & 9 ].[.v f {.S.{.#Xy o 5 o $ F F # 6 o O >.n g.T.'.",
"Q.uXbX).nX2XVXSXSXkX<XnXHXP.#XNXVXAX-XVXSXBXKXBXD.6XPXUX#XM dX-X*.;.*.| #.#.| -.-.#.~ X.@.#.s BXKXKX",
"yX@XuXxXsX#X7 u.b a F.f.j.q a M S.D.b F.,XMXCXVXS.D.NXGX,XZ.C.@XY -.-.$.$.X.S $.%.%.J @.@.#.G vXmXxX",
"oXm GXGXDXfXw 5.Z.~ $.$.$.&.$.%.$.J F H K F x a b 4 = v M ; ; 9.d f.b.%X|.F.4 y.v.z   F >.wX;X- n {.",
"VX[.PXPXIXNXw M.J.R  .+.X.| +.#.#.J D @.X.X.Q :X:Xf D.$XkXs.n.^.D.H.Z.m.oXtXy.4.N.p.  ,XCXkXsXg L._.",
"1.Y 7XS.#X$X0 5.5.8 K D S F S }  .G J } }  .R .X:XM G.$X$Xv p.gXm.D.m.l.z.x.1 4.N.e.  oXsX$XM n _.=X",
"-.;.wXsXNXMX9.r.B.h n.W.h m.tX7 l l.m.y `.5X6X:X7Xz Q `.F.c l  Xc.d : N c.h.7 f.@Xw 8 b u u c Y % .X",
"{  .>.,XsX].a.^.!.9.(./.a.tXhXu.v.~.^.'.SXPXUXUXPXMXBXVXGXNX XvXvXl T.R.(.(.P.,XHXF.V A s 3.3.` % eX",
"I 9 T E c S.>X>X{.7 U.uXl M oXj h l.x.k.+X+X#X[.;X,X>X$X].#X{.2XqXP.Y.R.R.I.f %XkXH.V Z a ` ` 3.% eX",
"5Xa 0XrX7XPXUXUXPX}.MXBXk.n.Q.z.1XVXVXv p.Z.s.k.{.&XOXOX$XsX>Xg c ! {.{.P.{.`.F.9 ].E U N % % R _ Q ",
"4Xc 9X9XG.DXNXNXNX;XpXkXF.d.p.k aXIXPXh.C.A.J.-XCXAX[.-XHXHXdXj.7XZXJXIX,XdXnXiXp KXGXBXVX1X>.3X4X7X",
"E o c E b 7 5 y q M kXCX;Xj w k k s.j.v b.u.j.{.qX2XM q l.l.m.z.%XGXHXlXD.g.g.k.-XBXBXiX'.x 3X8X8X8X",
"!.T.Y.*Xm S.,XCX].v uXtX>X].D.,X>X>X].D.lXtXlX1X<X>Xz.q f f f x M D.D.j.d.d v W S.OX6 G K <.T F.y p ",
"uXuXQ.i.k yXjXnXOXD.gXm.f.c F.#X-X>X|.F.fXfXpXpXHXHXhXj k.m :.,.OXdXzXlXdXfXHXGXGXKX$ @.#.-.<.q ].lX",
": : < & & ; f j : t 9.i S } <.G [ [ >.F Y I z i T j.j u N Q ,._ $XHXHXFXHX#XDXHXIXIXa #.@.#.#.$ NXKX",
"$XpXpXD.h.dXlXs.L.E.E.s X.@.*.=.@.+.[ $.#.o.K O.O.&.M N `.[.|.p v oXh..X5Xc f 5 7 v 6 F # I a p s.z.",
"zXHXGXJXD.lXlXpX0.E.R.B D { H &.$.X.G  .#.#.&.O.O.| }.NXKXKXGXdXuXjXd.:.wXeXS.7 d.F.+X8 @XJ.b v.~.m.",
"s.D.oXD.`.6XOXh.g.n.n.n < 1 5.4 = 7 7 $ # K $ $ $ $ j.>XsXsXsX+XQ.U.j M eXeXS.f z.z.H.q J.yXf.I.W.n.",
"a.gXdXD.NXAXPXk.W.A.A.v.N.M.M.e.e.W.~.p.w w w & 4.9.> = & : d 7 o p p 4 q v F.6 u y z |.W p 6 c |.W ",
"x.tX@Xj [.'.XX: y.9.y.0 1 4.w.5.e.~.^.p.b.d.f.< 8.E.w.> w.~.Q.;X0XZX9XF.iXFXNX}.VXBXCXNXBX-X. VXPXPX",
"f n {.f i.l.s.A.9.; d.m.u.i.x.j.< & < 0 u.i.u.0 * t.w.2 w./.hXOX7X9X0XS.tXDXfXm -XaX1XaXsXk.X ].&X'.",
"iXg.xX=XB.B.!.V.B.i.tXhXZ.Q.bXFX'.{.qXqXf h w w ; ; f u f d d d z M f.f 4 l k 5 . .  XY.7 N ].oXm e ",
"uXg.(.c.< w y.n.Y.r U.^.m.x.jXnX-XqXAXAXh.e.C.hXz.D ..{  .i : g.u -XBXaXN P.vXvX=Xe vXxXu m.m.m.@Xn ",
"J.u.< 7 = 4 @ e t n g l n B P.k P.2X-X&X= r m.!.XX| X.+.X.s Y.vX XN vXaXP.n uX*Xv . qX&X5 d q 8 f B ",
"H.Z.b.h.'.P.` ( ( ' ' ' ( ) ) _ y S.k.k.x v h.a.h Y J [ H e T.T.P.d h.k = 7 z.i H D &.Y H ] ] S g I.",
"$XJ.b.P.&Xx.' ` ` ( ' ' ) ) ) _ BXPXIXPX$XbXbX@Xq.q.0.r t t 0., r 9.n.i.u.oX$X$ #.#.%.D +.#.+.# * V.",
"7 w u.i.i.j.g P.N :.:.3.,._ T._ MXGXGXNXs.hXhXI.0.0.t 0.0.E.E.t.q.n./.U.f.H.H.a ..| ] G ] [ K 5 - h ",
"U.I.(.Q.8.FXjX^.[.KXPXVXcXmXbXuXk k i.v 7 g.P.c.e P.&X-X{.g.n.T.z.g.tXiXOXy Q `.M . x `.{.k.y vXSXJX",
"=XT.n.g.9.!.jXuXh.pXCXNXXXiXyX@X9.t.B.r.y.e Y.vXS.vXvXFXDXD.&X2X-X'.BXAXVX1XJXIX>X5 vXvXnXP.k.&X}.}.",
"XXv j.S.u s [ [ 5 > w y.0 F.0X8Xl.V.E.~.I.g ).).g P.@XXXiXk.-X;X-Xj.1X1X#XS.! / ! o aX<X*Xk   K K D ",
"mX;XAXCXs { ..O.I 3 3 , 2 T 0X3Xx 9.a.h.R I >.F.f U.g e N '.R ^ 1.U V V C + Z L / 7 m.gXtX@X7 ..X.+.",
"fXk.&X2X:.*.*.*.Y : 9.h k z c Q W `..XeX! 2./ ^ P.nXuXN qXvX! L 1./ Z Z Z V Z L / 0 M.A.Z.h   S D *.",
"x.x.w ,XZXsXeXkX`.PXPXSXZXZX:X:XSXKXPXVXQ ^ 2.1.a {.P.n &X XY ^ / I C U P O C I P . 0 0 ; = = b OXJX",
"jXjXk.GXSXNXiXfXj.'.1XcXsX<XS.v j.j.k.k.b $  .$.O. .i :.[.:.|..X|.:.{.GX*X'.P.tX#XG.$XXXD.+X+X$XLXLX",
"m.Q.i.k l.d.w 0 w 0 > * > : a.r.e.; m.HXUX}.O.#.-.-.|.-X<XGXKXKXVXBX<XFX@XC.~.^.+XyXzXtXdXFXfX].LXIX",
"A P p.C.U.d.a.y.< 2 3 4.8.2 I./.B.w > m.>Xj.Y H } [ s D.P.P.'.P.c.l > h 1 2 5.9.y.z.XXl.z.XX0 d n r ",
"Z E 9.A.A.a.E.!.9.3 , 8.e.h e.I.r ; & & ; v }.;X6Xk.W {.].d c.=XU.1 4.6.n.v.w.N.B.w.* t.w.t.0.0., * ",
"U p v @Xy.d r.=X2 , 4.1 1 u.; j.H.d.j v NXPXUXUXUX1X:X6X1Xz.bXbXxXn.E.B.w.4.r.B.W.B.3 N.N.N.0.0.t 2 ",
"x FXLXFX<XvXAXAXe.N.N.4.w.B.9.@XgXJ.gXH.NXJXNXGXVX,XeX6X:XOXuXU.c.: 7 u $ = * 2 2 8 9 9 z u.H.b.e.6.",
"r /./.!.&XvXvXvXv.B.B.e.r.A.5.; u.p.v.j c T 9 E T ! E E b F.W T } +.+.+.$.s pXdXx / 9X9X%Xb.J.J.e.N.",
"b , 9.r v y y f d XX>X`.M y 6 }.6XkXz ! 4X4XT 8X4X7X8X8X3X8X8X5X| @.+.+. .{.zXJXS.I 8X9Xf.j H.b.< Y ",
"j.m.v.m.1XPXSXVXk.cXNXGXVXKXOX;XeXkXf.! 4X! c G.G.R 3X|.G.1.3X! S ..D K J p = 5 W 6 F.T   + T T + %.",
"f.^.^.W.sXKXHXKX>Xm iX&XOXoXx x m k.P.Y.n m N D.}.`.{.,X7X%X|.|.eX1X'.BXPXsX].BXVXCXPXj.A A A A P L ",
"$ 7.p.i.w 5.p.p.e r r r o F S [ K T.xX).m NXFXFXFXdX#XJXJXJXMX7XJXDXj.dXGXVX>XcXnXDXFXCXA V P T 8 9 "
};
