/* XPM */
static char *_aiUCHncQQGZcdGPaxezQGfOzR[] = {
/* columns rows colors chars-per-pixel */
"10 10 3 1 ",
"  c none",
"  c #white",
". c #000000",
/* pixels */
".*.*.*.*.*",
"* * * * *.",
".* * * * *",
"* * * * *.",
".* * * * *",
"* * * * *.",
".* * * * *",
"* * * * *.",
".* * * * *",
"*.*.*.*.*."
};